<?xml version="1.0" encoding="UTF-8"?>
<svg version="1.1" xmlns="http://www.w3.org/2000/svg" width="512" height="512">
<path d="M0 0 C2.32210694 -0.01576832 4.64419318 -0.03488511 6.96624756 -0.05708313 C13.25180897 -0.10623528 19.53638346 -0.1045944 25.82208538 -0.09063506 C31.74674157 -0.0824468 37.67124517 -0.10461342 43.59586456 -0.12378982 C56.05010031 -0.1620498 68.5038917 -0.14912114 80.95812562 -0.12003455 C92.32238347 -0.09501991 103.68543042 -0.13210923 115.04948732 -0.19900116 C126.74904896 -0.2673404 138.44804574 -0.29459277 150.1478045 -0.27757245 C156.70400919 -0.26904159 163.25918587 -0.27632423 169.81523895 -0.32478905 C175.98518367 -0.36849271 182.15279986 -0.3582628 188.32266998 -0.30776787 C190.57718308 -0.29807712 192.83186895 -0.30683833 195.08621216 -0.33616257 C209.1633383 -0.50540806 217.99707696 0.95070694 228.50169802 10.65148389 C231.34890059 13.13647362 234.49782896 15.1828496 237.64160156 17.27026367 C238.36637695 17.7663916 239.09115234 18.26251953 239.83789062 18.77368164 C240.43827148 19.18247559 241.03865234 19.59126953 241.65722656 20.01245117 C246.92308255 23.6097517 252.15753305 27.25192871 257.39160156 30.89526367 C258.37233643 31.57790283 259.35307129 32.26054199 260.36352539 32.96386719 C269.1406839 39.07677599 277.90438589 45.20879343 286.66357422 51.34741211 C289.22138002 53.13863217 291.78088708 54.92739806 294.34082031 56.71557617 C302.0222287 62.08262174 309.69938284 67.45487308 317.32910156 72.89526367 C317.91159668 73.31001953 318.4940918 73.72477539 319.09423828 74.15209961 C323.01774352 76.95890563 323.01774352 76.95890563 324.14160156 78.08276367 C324.24518688 80.25854697 324.27683887 82.43775587 324.28204346 84.61599731 C324.28650014 85.65261877 324.28650014 85.65261877 324.29104686 86.71018207 C324.29977192 89.04418612 324.30124544 91.3781391 324.30273438 93.7121582 C324.30736071 95.37940074 324.31238512 97.04664222 324.31777954 98.71388245 C324.33094327 103.26274272 324.33735886 107.8115882 324.3417902 112.36046457 C324.34472099 115.21015909 324.34882632 118.05984959 324.35329437 120.90954208 C324.36699388 129.84607237 324.37664249 138.78259343 324.38049626 147.7191335 C324.38495128 157.99216385 324.40236862 168.26505943 324.43149686 178.53804886 C324.45326954 186.49760104 324.46320914 194.45711581 324.46453738 202.41669738 C324.46557646 207.15873189 324.47128706 211.90064018 324.48935699 216.64264297 C324.71515897 279.60256183 307.18298539 332.51951125 267.14160156 382.08276367 C266.31054911 383.12677725 265.47979759 384.17103047 264.64941406 385.21557617 C260.38859173 390.50843159 255.95057602 395.61373746 251.37207031 400.63354492 C249.92421261 402.22339918 248.48849514 403.8244269 247.06738281 405.43823242 C238.76106288 414.85001453 229.95771367 424.0908331 220.36035156 432.20385742 C218.52555834 433.75761718 216.72101859 435.334856 214.92285156 436.93041992 C205.66358071 445.11421961 196.0634564 452.72024876 186.14160156 460.08276367 C185.05274658 460.89511475 185.05274658 460.89511475 183.94189453 461.72387695 C172.68864707 470.0935885 161.09518042 477.75379564 149.14160156 485.08276367 C148.5019043 485.47915039 147.86220703 485.87553711 147.203125 486.28393555 C136.60324491 492.84983014 125.69019822 498.83742157 114.69580078 504.71411133 C113.08985588 505.57464728 111.48684979 506.44071356 109.88818359 507.31469727 C107.98066187 508.35751206 106.06375892 509.37975433 104.14160156 510.39526367 C103.11035156 510.94827148 102.07910156 511.5012793 101.01660156 512.07104492 C95.89926884 513.87184543 92.30521994 512.25266323 87.58691406 510.07104492 C85.80795985 509.19017239 84.03483698 508.29745989 82.26660156 507.39526367 C80.82607422 506.66593628 80.82607422 506.66593628 79.35644531 505.921875 C40.2957612 485.87042906 3.98148334 460.78605496 -28.47949219 431.24291992 C-30.0442135 429.82208103 -31.61953372 428.41281265 -33.20605469 427.01635742 C-43.37231002 418.04029784 -53.14649107 408.48649234 -61.85839844 398.08276367 C-62.66277344 397.15592773 -63.46714844 396.2290918 -64.29589844 395.27416992 C-103.84152913 349.55266531 -131.82270294 294.71314166 -132.27587891 233.41479492 C-132.2950237 231.7224711 -132.31480855 230.03015442 -132.33517456 228.33784485 C-132.39704186 222.85707412 -132.43831341 217.37625011 -132.47558594 211.89526367 C-132.48218058 210.95786095 -132.48877522 210.02045822 -132.49556971 209.05464935 C-132.55698839 200.19770255 -132.61031031 191.34073946 -132.64440727 182.48364258 C-132.68834584 171.21155316 -132.77276035 159.94135133 -132.91128242 148.67001629 C-133.00580002 140.70697713 -133.0542747 132.74444808 -133.06880105 124.78086567 C-133.07868978 120.03752899 -133.10861366 115.29634043 -133.18828964 110.55361938 C-133.26215083 106.10052055 -133.27881071 101.65079228 -133.25227737 97.19719505 C-133.252385 95.56891542 -133.27287326 93.94048314 -133.31578064 92.31276894 C-133.62135264 80.0624473 -133.62135264 80.0624473 -129.28671646 75.19493103 C-126.24063916 72.88153585 -123.18331658 70.96632327 -119.85839844 69.08276367 C-118.01270051 67.80486717 -116.17720255 66.51193698 -114.35839844 65.19604492 C-112.52656966 63.9269434 -110.69319823 62.66006605 -108.85839844 61.39526367 C-106.83737885 59.99579302 -104.81654885 58.59604856 -102.79589844 57.19604492 C-101.29736328 56.15891357 -101.29736328 56.15891357 -99.76855469 55.10083008 C-95.45486716 52.10947596 -91.15612979 49.09697634 -86.85839844 46.08276367 C-79.70237511 41.06738824 -72.53378843 36.07038897 -65.35839844 31.08276367 C-57.93720296 25.92257736 -50.51786493 20.75978222 -43.10839844 15.58276367 C-42.33560547 15.04393555 -41.5628125 14.50510742 -40.76660156 13.94995117 C-40.01830078 13.4265918 -39.27 12.90323242 -38.49902344 12.36401367 C-37.77650517 11.87523145 -37.05398689 11.38644922 -36.30957413 10.88285542 C-33.83051468 9.15391847 -33.83051468 9.15391847 -31.80257797 7.05039501 C-22.56835214 -1.38066352 -11.82916901 -0.06713889 0 0 Z " fill="#00B3FD" transform="translate(159.8583984375,-1.082763671875)"/>
<path d="M0 0 C2.32210694 -0.01576832 4.64419318 -0.03488511 6.96624756 -0.05708313 C13.25180897 -0.10623528 19.53638346 -0.1045944 25.82208538 -0.09063506 C31.74674157 -0.0824468 37.67124517 -0.10461342 43.59586456 -0.12378982 C56.05010031 -0.1620498 68.5038917 -0.14912114 80.95812562 -0.12003455 C92.32238347 -0.09501991 103.68543042 -0.13210923 115.04948732 -0.19900116 C126.74904896 -0.2673404 138.44804574 -0.29459277 150.1478045 -0.27757245 C156.70400919 -0.26904159 163.25918587 -0.27632423 169.81523895 -0.32478905 C175.98518367 -0.36849271 182.15279986 -0.3582628 188.32266998 -0.30776787 C190.57718308 -0.29807712 192.83186895 -0.30683833 195.08621216 -0.33616257 C209.1633383 -0.50540806 217.99707696 0.95070694 228.50169802 10.65148389 C231.34890059 13.13647362 234.49782896 15.1828496 237.64160156 17.27026367 C238.36637695 17.7663916 239.09115234 18.26251953 239.83789062 18.77368164 C240.43827148 19.18247559 241.03865234 19.59126953 241.65722656 20.01245117 C246.92308255 23.6097517 252.15753305 27.25192871 257.39160156 30.89526367 C258.37233643 31.57790283 259.35307129 32.26054199 260.36352539 32.96386719 C269.1406839 39.07677599 277.90438589 45.20879343 286.66357422 51.34741211 C289.22138002 53.13863217 291.78088708 54.92739806 294.34082031 56.71557617 C302.0222287 62.08262174 309.69938284 67.45487308 317.32910156 72.89526367 C317.91159668 73.31001953 318.4940918 73.72477539 319.09423828 74.15209961 C323.01774352 76.95890563 323.01774352 76.95890563 324.14160156 78.08276367 C324.24518688 80.25854697 324.27683887 82.43775587 324.28204346 84.61599731 C324.28650014 85.65261877 324.28650014 85.65261877 324.29104686 86.71018207 C324.29977192 89.04418612 324.30124544 91.3781391 324.30273438 93.7121582 C324.30736071 95.37940074 324.31238512 97.04664222 324.31777954 98.71388245 C324.33094327 103.26274272 324.33735886 107.8115882 324.3417902 112.36046457 C324.34472099 115.21015909 324.34882632 118.05984959 324.35329437 120.90954208 C324.36699388 129.84607237 324.37664249 138.78259343 324.38049626 147.7191335 C324.38495128 157.99216385 324.40236862 168.26505943 324.43149686 178.53804886 C324.45326954 186.49760104 324.46320914 194.45711581 324.46453738 202.41669738 C324.46557646 207.15873189 324.47128706 211.90064018 324.48935699 216.64264297 C324.71515897 279.60256183 307.18298539 332.51951125 267.14160156 382.08276367 C266.31054911 383.12677725 265.47979759 384.17103047 264.64941406 385.21557617 C260.38859173 390.50843159 255.95057602 395.61373746 251.37207031 400.63354492 C249.92421261 402.22339918 248.48849514 403.8244269 247.06738281 405.43823242 C238.76106288 414.85001453 229.95771367 424.0908331 220.36035156 432.20385742 C218.52555834 433.75761718 216.72101859 435.334856 214.92285156 436.93041992 C205.66358071 445.11421961 196.0634564 452.72024876 186.14160156 460.08276367 C185.05274658 460.89511475 185.05274658 460.89511475 183.94189453 461.72387695 C172.68864707 470.0935885 161.09518042 477.75379564 149.14160156 485.08276367 C148.5019043 485.47915039 147.86220703 485.87553711 147.203125 486.28393555 C136.60324491 492.84983014 125.69019822 498.83742157 114.69580078 504.71411133 C113.08985588 505.57464728 111.48684979 506.44071356 109.88818359 507.31469727 C107.98066187 508.35751206 106.06375892 509.37975433 104.14160156 510.39526367 C103.11035156 510.94827148 102.07910156 511.5012793 101.01660156 512.07104492 C95.89926884 513.87184543 92.30521994 512.25266323 87.58691406 510.07104492 C85.80795985 509.19017239 84.03483698 508.29745989 82.26660156 507.39526367 C80.82607422 506.66593628 80.82607422 506.66593628 79.35644531 505.921875 C40.2957612 485.87042906 3.98148334 460.78605496 -28.47949219 431.24291992 C-30.0442135 429.82208103 -31.61953372 428.41281265 -33.20605469 427.01635742 C-43.37231002 418.04029784 -53.14649107 408.48649234 -61.85839844 398.08276367 C-62.66277344 397.15592773 -63.46714844 396.2290918 -64.29589844 395.27416992 C-103.84152913 349.55266531 -131.82270294 294.71314166 -132.27587891 233.41479492 C-132.2950237 231.7224711 -132.31480855 230.03015442 -132.33517456 228.33784485 C-132.39704186 222.85707412 -132.43831341 217.37625011 -132.47558594 211.89526367 C-132.48218058 210.95786095 -132.48877522 210.02045822 -132.49556971 209.05464935 C-132.55698839 200.19770255 -132.61031031 191.34073946 -132.64440727 182.48364258 C-132.68834584 171.21155316 -132.77276035 159.94135133 -132.91128242 148.67001629 C-133.00580002 140.70697713 -133.0542747 132.74444808 -133.06880105 124.78086567 C-133.07868978 120.03752899 -133.10861366 115.29634043 -133.18828964 110.55361938 C-133.26215083 106.10052055 -133.27881071 101.65079228 -133.25227737 97.19719505 C-133.252385 95.56891542 -133.27287326 93.94048314 -133.31578064 92.31276894 C-133.62135264 80.0624473 -133.62135264 80.0624473 -129.28671646 75.19493103 C-126.24063916 72.88153585 -123.18331658 70.96632327 -119.85839844 69.08276367 C-118.01270051 67.80486717 -116.17720255 66.51193698 -114.35839844 65.19604492 C-112.52656966 63.9269434 -110.69319823 62.66006605 -108.85839844 61.39526367 C-106.83737885 59.99579302 -104.81654885 58.59604856 -102.79589844 57.19604492 C-101.29736328 56.15891357 -101.29736328 56.15891357 -99.76855469 55.10083008 C-95.45486716 52.10947596 -91.15612979 49.09697634 -86.85839844 46.08276367 C-79.70237511 41.06738824 -72.53378843 36.07038897 -65.35839844 31.08276367 C-57.93720296 25.92257736 -50.51786493 20.75978222 -43.10839844 15.58276367 C-42.33560547 15.04393555 -41.5628125 14.50510742 -40.76660156 13.94995117 C-40.01830078 13.4265918 -39.27 12.90323242 -38.49902344 12.36401367 C-37.77650517 11.87523145 -37.05398689 11.38644922 -36.30957413 10.88285542 C-33.83051468 9.15391847 -33.83051468 9.15391847 -31.80257797 7.05039501 C-22.56835214 -1.38066352 -11.82916901 -0.06713889 0 0 Z M-21.27050388 55.77734709 C-23.44972953 57.56890011 -25.75707953 59.14795114 -28.09277344 60.72729492 C-29.5984658 61.78259424 -31.10367718 62.83858015 -32.60839844 63.89526367 C-34.31542536 65.09188442 -36.02245674 66.28849883 -37.72949219 67.48510742 C-38.5801123 68.08178223 -39.43073242 68.67845703 -40.30712891 69.29321289 C-47.15480994 74.09641882 -47.15480994 74.09641882 -50.08160973 76.13626003 C-51.7170098 77.28672548 -53.34339621 78.45021148 -54.95664406 79.63153934 C-59.42888286 82.86885698 -63.82989678 85.64018237 -68.80184937 88.05015564 C-76.41136745 92.0023905 -84.02952569 96.15346048 -87.14548492 104.5518074 C-89.01091409 114.12574747 -88.65045766 123.80551996 -88.28925371 133.51010251 C-88.15509462 137.7637688 -88.15182978 142.01772205 -88.13290405 146.2731781 C-88.08345788 153.41451635 -87.95128128 160.55011714 -87.75830078 167.68896484 C-87.48744867 177.71137722 -87.3639782 187.73154912 -87.2715199 197.75698006 C-87.13929071 211.23404744 -86.96408832 224.71319437 -86.61846924 238.1866188 C-86.58301256 239.62991757 -86.55181257 241.07332931 -86.52555466 242.51682472 C-86.2665019 256.28394657 -83.98616401 269.09275264 -79.35839844 282.08276367 C-78.84345825 283.53561768 -78.84345825 283.53561768 -78.31811523 285.01782227 C-68.91378862 310.78771482 -54.97725078 333.75530911 -37.85839844 355.08276367 C-37.06820312 356.0856543 -36.27800781 357.08854492 -35.46386719 358.12182617 C-20.95308612 376.26683889 -4.23346091 393.86534983 14.14160156 408.08276367 C15.97832483 409.64127739 17.81143113 411.20406013 19.64160156 412.77026367 C37.91023577 427.97843081 57.84511307 441.057269 78.35498047 453.02563477 C80.24094982 454.14154721 82.10329691 455.29147891 83.96582031 456.44604492 C85.21160584 457.20046038 86.457689 457.95438462 87.70410156 458.70776367 C88.79851562 459.3806543 89.89292969 460.05354492 91.02050781 460.74682617 C94.79965518 462.36443368 96.24245122 462.30708705 100.14160156 461.08276367 C102.90452156 459.8451551 105.51642914 458.4005848 108.14160156 456.89526367 C109.30369141 456.23747925 109.30369141 456.23747925 110.48925781 455.56640625 C127.04546984 446.07315036 142.8703438 435.51728819 158.14160156 424.08276367 C158.74294922 423.63449219 159.34429687 423.1862207 159.96386719 422.72436523 C171.89271827 413.80136847 183.1531152 404.13220398 194.14160156 394.08276367 C195.22870501 393.1008421 196.31595288 392.11908041 197.40332031 391.13745117 C202.66356501 386.36532469 207.80201997 381.63590191 212.36035156 376.17260742 C214.57357801 373.5759492 216.92403931 371.12582169 219.26660156 368.64526367 C226.14207117 361.25107195 232.14635846 353.19434877 238.14160156 345.08276367 C239.12773438 343.75825195 239.12773438 343.75825195 240.13378906 342.40698242 C249.45869353 329.49042815 257.50995924 315.55889413 264.14160156 301.08276367 C264.59744629 300.08841309 264.59744629 300.08841309 265.0625 299.07397461 C271.85494466 284.00301149 278.05126275 267.18808489 278.38298035 250.52635193 C278.41036789 249.22428299 278.43775543 247.92221405 278.4659729 246.58068848 C278.49113753 245.14966226 278.51606237 243.71863181 278.54077148 242.28759766 C278.56997919 240.77087631 278.59933589 239.25415782 278.62882996 237.73744202 C278.88807636 223.90743176 279.03740445 210.07576434 279.15635204 196.24391079 C279.23809169 186.95579848 279.35381224 177.67065026 279.55444336 168.38427734 C279.72979952 160.26646025 279.84100804 152.15071462 279.8758648 144.0310331 C279.89637552 139.73971638 279.94748264 135.45400028 280.07530785 131.1644268 C281.26102448 114.13590788 281.26102448 114.13590788 276.41431046 98.41817093 C272.34804781 94.19666825 267.75948912 91.54453992 262.44141865 89.17738152 C258.75780379 87.42413315 255.55218335 85.04302637 252.26660156 82.64526367 C250.9483865 81.74305882 249.62958696 80.84170557 248.30957031 79.94213867 C242.87446005 76.22426846 237.48855183 72.43643069 232.09790039 68.65454102 C227.33594995 65.31527643 222.56740946 61.98587863 217.79003906 58.66870117 C216.73502197 57.93611084 215.68000488 57.20352051 214.59301758 56.44873047 C212.5263869 55.01444988 210.4591815 53.58099701 208.39135742 52.1484375 C207.4594458 51.50156982 206.52753418 50.85470215 205.56738281 50.18823242 C204.32081909 49.32427856 204.32081909 49.32427856 203.04907227 48.44287109 C201.14160156 47.08276367 201.14160156 47.08276367 200.14160156 46.08276367 C197.50993075 45.96054536 194.90361032 45.90375819 192.27049255 45.88848877 C191.43563184 45.87987312 190.60077113 45.87125747 189.74061161 45.86238074 C186.92043944 45.83480173 184.10026484 45.81466178 181.2800293 45.79467773 C179.26645664 45.77696487 177.25288652 45.75896294 175.23931885 45.74069214 C156.80002007 45.5812254 138.35996152 45.49723463 119.92011929 45.43069839 C106.29475509 45.38054532 92.67060152 45.29478709 79.04578632 45.16207719 C69.46260547 45.07189206 59.87975519 45.02421878 50.29616886 45.00711989 C44.57619905 44.99568518 38.85777464 44.96560324 33.13827324 44.88916779 C27.74426207 44.8178649 22.35254776 44.7996105 16.95812988 44.8202858 C14.98935818 44.81886798 13.02048883 44.79893065 11.05214119 44.7580452 C-2.55402756 44.49019176 -10.75999053 47.00407072 -21.27050388 55.77734709 Z " fill="#00358F" transform="translate(159.8583984375,-1.082763671875)"/>
<path d="M0 0 C22.64625 -0.2475 22.64625 -0.2475 45.75 -0.5 C52.86900879 -0.60924805 52.86900879 -0.60924805 60.13183594 -0.72070312 C65.98095703 -0.75683594 65.98095703 -0.75683594 68.72955322 -0.7635498 C70.62667912 -0.77573916 72.52374764 -0.80367737 74.42047119 -0.84460449 C87.15195966 -1.10530324 95.10002447 -0.66638155 105 8 C106.60166929 9.13562438 108.21436852 10.25607026 109.84375 11.3515625 C111.39681047 12.44131709 112.94887696 13.53248949 114.5 14.625 C116.22261896 15.83468852 117.94527641 17.04432223 119.66796875 18.25390625 C120.54114746 18.86766113 121.41432617 19.48141602 122.31396484 20.11376953 C125.03652075 22.02564618 127.76188283 23.93345126 130.48828125 25.83984375 C131.3803125 26.46358887 132.27234375 27.08733398 133.19140625 27.72998047 C134.89054447 28.91792118 136.58975852 30.10575344 138.2890625 31.29345703 C139.06636719 31.83728027 139.84367188 32.38110352 140.64453125 32.94140625 C141.31846924 33.41263916 141.99240723 33.88387207 142.68676758 34.36938477 C143.83181763 35.17653931 143.83181763 35.17653931 145 36 C145.56971999 36.26805923 146.13943998 36.53611845 146.72642422 36.81230068 C148.93539236 38.00497904 150.37651667 39.07152206 152 41 C153.06802588 45.16042499 152.93559847 49.25972153 152.87402344 53.53515625 C152.88760391 55.44612091 152.88760391 55.44612091 152.90145874 57.39569092 C152.92481812 60.88896772 152.90421828 64.38072743 152.8744154 67.87390518 C152.84915057 71.55030187 152.85983033 75.22662085 152.86529541 78.90307617 C152.86888221 85.09383484 152.84434042 91.28399938 152.80273438 97.47460938 C152.75529179 104.57787992 152.74960619 111.68020059 152.7676847 118.78358555 C152.78433321 125.65913982 152.77214148 132.53436232 152.74695587 139.40988159 C152.7366947 142.31207603 152.73566623 145.21403884 152.74260712 148.11624146 C152.82546087 197.98609018 131.34977992 239.27294572 97.59375 275.21875 C95.29425262 277.6844761 93.08270684 280.20264595 90.875 282.75 C80.94794063 293.80188804 69.6865218 303.85537419 58 313 C56.74663524 314.01729279 55.49409708 315.03560446 54.2421875 316.0546875 C9.59640462 352 9.59640462 352 0 352 C-0.77735484 332.36347654 -1.35583011 312.73014371 -1.70980167 293.0813303 C-1.87868312 283.95312666 -2.108806 274.834666 -2.48950195 265.71264648 C-5.20660785 199.32530764 -5.20660785 199.32530764 9.39323139 182.46595287 C15.38034283 176.23777283 22.15407207 171.12933186 29.38833618 166.44515991 C33.77047363 163.58512863 36.80774416 160.10115008 40 156 C42.20310401 153.66076329 44.49279705 151.41174795 46.78125 149.15625 C47.39842896 148.54285767 48.01560791 147.92946533 48.65148926 147.29748535 C51.25258789 144.71250482 53.85970014 142.13362178 56.46630859 139.55419922 C65.66981653 130.48452563 65.66981653 130.48452563 74.32666016 120.90039062 C77.99007755 116.73989442 81.99997747 112.89859645 85.9375 109 C86.81212891 108.12988281 87.68675781 107.25976562 88.58789062 106.36328125 C90.72297449 104.23986451 92.86037205 102.11883622 95 100 C90.76183463 94.93376232 86.32591037 90.19961931 81.625 85.5625 C80.98433594 84.92634766 80.34367187 84.29019531 79.68359375 83.63476562 C78.12469121 82.08749668 76.56348584 80.54263508 75 79 C69.55694706 83.54065206 64.49739646 88.35078389 59.5 93.375 C58.77941406 94.09171875 58.05882812 94.8084375 57.31640625 95.546875 C54.0502124 98.81897516 50.8661253 102.10661233 47.875 105.6328125 C41.54513989 112.97725876 34.42059392 119.63072591 27.53369141 126.44580078 C18.135878 135.69785521 18.135878 135.69785521 9.29394531 145.47460938 C7.65642373 147.40503104 5.91863853 149.21462709 4.125 151 C3.55007813 151.5775 2.97515625 152.155 2.3828125 152.75 C1 154 1 154 0 154 C0 103.18 0 52.36 0 0 Z " fill="#0274F8" transform="translate(256,75)"/>
<path d="M0 0 C2.01744381 -0.01494202 4.03485756 -0.03454815 6.05221558 -0.05841064 C11.48468201 -0.10816596 16.91482718 -0.08928535 22.34732938 -0.0542407 C28.05916197 -0.02618842 33.77080949 -0.05227439 39.48265076 -0.06948853 C49.06968501 -0.08944138 58.65578389 -0.06328479 68.24267578 -0.01074219 C79.29406957 0.04913107 90.343231 0.02970595 101.39457089 -0.03083265 C110.91965828 -0.08090263 120.44407735 -0.08772179 129.96925396 -0.05900729 C135.6422794 -0.04194233 141.31425868 -0.03933432 146.98721504 -0.07590866 C152.32274824 -0.10791168 157.65542976 -0.08524799 162.99065781 -0.02207184 C164.93712971 -0.00764575 166.8838457 -0.01150036 168.83021736 -0.03596115 C182.13574941 -0.18763953 189.96267868 2.19227387 199.94548404 11.13799834 C201.95663554 12.89151045 204.11769433 14.37359675 206.33764648 15.84912109 C207.04332764 16.32792725 207.74900879 16.8067334 208.47607422 17.30004883 C209.17933838 17.77385986 209.88260254 18.2476709 210.60717773 18.73583984 C219.74323375 24.94148043 228.79534747 31.26144145 237.83325195 37.60888672 C240.54862316 39.51379882 243.26696033 41.41441338 245.98608398 43.31396484 C246.89559814 43.94955322 247.8051123 44.5851416 248.7421875 45.23999023 C250.48586591 46.45835511 252.22982935 47.6763122 253.97412109 48.89379883 C254.76052979 49.44366455 255.54693848 49.99353027 256.35717773 50.56005859 C257.04682617 51.04176514 257.73647461 51.52347168 258.44702148 52.01977539 C259.09799805 52.48295166 259.74897461 52.94612793 260.41967773 53.42333984 C261.10974883 53.82061342 261.79981993 54.217887 262.51080227 54.62719917 C264.41967773 56.42333984 264.41967773 56.42333984 264.92583561 59.17013359 C264.92864253 60.29049067 264.93144945 61.41084774 264.93434143 62.56515503 C264.94706589 63.8515387 264.95979034 65.13792236 264.97290039 66.46328735 C264.96671711 67.89251892 264.96011099 69.3217487 264.953125 70.75097656 C264.96018206 72.25428109 264.96892618 73.7575785 264.97923279 75.26086426 C265.00179434 79.35299093 264.99876642 83.44473189 264.98991132 87.53689718 C264.9847986 90.96484781 264.99209862 94.39272611 264.99938339 97.82066929 C265.01641329 105.92933841 265.0127968 114.03781963 264.99609375 122.14648438 C264.979279 130.46409397 264.99485168 138.78117466 265.02731663 147.09872615 C265.05421468 154.26597366 265.06123138 161.43305863 265.05280155 168.60035145 C265.04791708 172.86839999 265.04983635 177.13613275 265.07058907 181.40414047 C265.14842536 199.24864594 265.1206595 216.28713864 259.41967773 233.42333984 C259.1418149 234.2683392 258.86395206 235.11333855 258.57766914 235.98394394 C254.80887525 247.29926207 250.0673513 257.92880185 244.41967773 268.42333984 C244.07179199 269.07898926 243.72390625 269.73463867 243.36547852 270.41015625 C233.56297444 288.79938471 221.32067983 305.53481911 207.73217773 321.29833984 C207.20962402 321.90492432 206.68707031 322.51150879 206.14868164 323.13647461 C202.91121696 326.84464894 199.54017502 330.36389686 196.01586914 333.80078125 C194.40396492 335.43931221 192.93784024 337.14559562 191.48217773 338.92333984 C188.73103997 342.20129123 185.66912226 344.91555676 182.41186523 347.68115234 C180.54462038 349.31407627 178.82705377 351.01263123 177.10717773 352.79833984 C173.02886748 356.93163855 168.551367 360.52199631 164.01782227 364.14160156 C162.34003078 365.48721801 160.67430438 366.84682624 159.00952148 368.20849609 C139.17260054 384.3642278 118.02724047 398.37980094 95.91967773 411.23583984 C95.05366943 411.74574463 94.18766113 412.25564941 93.29541016 412.78100586 C84.80033098 417.63785637 84.80033098 417.63785637 80.41967773 417.42333984 C76.88021799 416.03764622 73.68506714 414.17000516 70.41967773 412.23583984 C69.43507568 411.66575195 68.45047363 411.09566406 67.43603516 410.50830078 C58.68215755 405.35076789 50.18659385 399.80438317 41.73217773 394.17333984 C41.10609619 393.75653961 40.48001465 393.33973938 39.83496094 392.91030884 C27.93187408 384.95882636 16.53840968 376.44419784 5.41967773 367.42333984 C4.12803711 366.39466797 4.12803711 366.39466797 2.81030273 365.34521484 C-15.43618769 350.68473988 -33.32275208 334.00958409 -47.58032227 315.42333984 C-48.52338834 314.2654926 -49.47029782 313.11076962 -50.42016602 311.95849609 C-57.39408397 303.46701274 -63.74928483 294.73715833 -69.58032227 285.42333984 C-69.99523926 284.76108398 -70.41015625 284.09882813 -70.83764648 283.41650391 C-80.32026779 268.1261872 -87.77495913 252.48791392 -93.51782227 235.42333984 C-93.89559814 234.3020166 -94.27337402 233.18069336 -94.66259766 232.02539062 C-98.56603853 220.02562738 -99.90761753 208.77020278 -100.12475586 196.16821289 C-100.15700484 194.66222073 -100.18976485 193.15623945 -100.22299194 191.65026855 C-100.51074815 177.97436646 -100.66228536 164.29509555 -100.78082848 150.61679363 C-100.87000337 140.528599 -101.02450611 130.44583174 -101.26399744 120.36006325 C-101.42734976 113.23791726 -101.5131818 106.11725158 -101.54343283 98.99331313 C-101.56366648 94.75012547 -101.61734617 90.51381742 -101.75605392 86.2727108 C-102.5593316 60.62932437 -102.5593316 60.62932437 -97.61995697 53.65555191 C-92.98542603 49.14365444 -87.79386883 46.17500369 -81.9307375 43.52756214 C-78.74646252 42.03159352 -76.11678868 40.14665338 -73.29907227 38.04833984 C-71.55966552 36.83975233 -69.82008616 35.63141319 -68.08032227 34.42333984 C-60.01605437 28.81944979 -51.96232975 23.20091697 -43.92797852 17.55419922 C-42.4425902 16.51207379 -40.94833595 15.48247797 -39.44574642 14.46531105 C-37.30526219 12.93994973 -35.31832506 11.39288258 -33.30297947 9.71808434 C-22.41491185 1.01565375 -13.64788318 -0.17171433 0 0 Z M-28.15740013 42.93240547 C-30.13434634 45.00384493 -32.38765996 46.50674976 -34.79125977 48.04443359 C-35.48880371 48.5178418 -36.18634766 48.99125 -36.9050293 49.47900391 C-37.58162598 49.93500977 -38.25822266 50.39101562 -38.95532227 50.86083984 C-45.90631141 55.58321136 -52.81992734 60.35578489 -59.70532227 65.17333984 C-60.57721191 65.78234131 -61.44910156 66.39134277 -62.34741211 67.01879883 C-63.14872559 67.58026611 -63.95003906 68.1417334 -64.77563477 68.72021484 C-65.4873584 69.21875977 -66.19908203 69.71730469 -66.93237305 70.23095703 C-68.53156072 71.32178902 -68.53156072 71.32178902 -69.58032227 72.42333984 C-69.68525046 74.11623021 -69.71997317 75.8135059 -69.72749329 77.5096283 C-69.73464859 78.61248672 -69.74180389 79.71534515 -69.74917603 80.85162354 C-69.75186493 82.07274841 -69.75455383 83.29387329 -69.75732422 84.55200195 C-69.76389542 85.83021317 -69.77046661 87.10842438 -69.77723694 88.42536926 C-69.79833828 92.68379448 -69.80865965 96.94222023 -69.81860352 101.20068359 C-69.82265182 102.67036012 -69.82676877 104.14003646 -69.8309536 105.6097126 C-69.85003545 112.52955306 -69.86424806 119.44938278 -69.87256557 126.36924452 C-69.88228505 134.32298272 -69.90845166 142.27643868 -69.94906646 150.23007768 C-69.97944136 156.3933877 -69.99405532 162.55661799 -69.99734658 168.72000128 C-69.99967716 172.39163152 -70.00836952 176.06296142 -70.03380775 179.73451042 C-70.13462481 195.07376112 -70.03570228 209.63660482 -65.58032227 224.42333984 C-65.29970444 225.38644577 -65.01908661 226.3495517 -64.72996521 227.34184265 C-64.07137686 229.51272326 -63.32915679 231.61776311 -62.51782227 233.73583984 C-62.22673584 234.50597412 -61.93564941 235.2761084 -61.63574219 236.06958008 C-51.71147325 261.37176664 -35.95243331 284.28785719 -17.60766602 304.21240234 C-15.81888886 306.16316895 -14.10189108 308.15314379 -12.39282227 310.17333984 C-4.50696002 319.21997153 4.22699431 327.71669171 13.41967773 335.42333984 C14.31170898 336.20451172 15.20374023 336.98568359 16.12280273 337.79052734 C31.80112354 351.45049543 48.99321085 363.12956844 66.41967773 374.42333984 C67.17958008 374.92397949 67.93948242 375.42461914 68.72241211 375.94042969 C70.7759431 377.28846156 72.84364696 378.61031034 74.91967773 379.92333984 C75.80864746 380.51175659 75.80864746 380.51175659 76.71557617 381.11206055 C79.28815246 382.69607972 80.79605144 383.54826824 83.81811523 382.94287109 C84.67663086 382.44142578 85.53514648 381.93998047 86.41967773 381.42333984 C87.00330078 381.09317871 87.58692383 380.76301758 88.18823242 380.42285156 C90.33193292 379.18998699 92.43918083 377.90784786 94.54467773 376.61083984 C95.3280249 376.12945557 96.11137207 375.64807129 96.91845703 375.15209961 C115.5200933 363.60759419 132.84906308 350.70911741 149.41967773 336.42333984 C150.47735352 335.51841797 150.47735352 335.51841797 151.55639648 334.59521484 C153.52939141 332.89107667 155.47742656 331.16245649 157.41967773 329.42333984 C158.82926758 328.17037109 158.82926758 328.17037109 160.26733398 326.89208984 C173.61428413 314.89225048 185.72039419 301.83554174 196.41967773 287.42333984 C196.84587402 286.85405762 197.27207031 286.28477539 197.71118164 285.69824219 C222.28138062 252.7241613 235.12582035 218.91132113 235.48648405 177.63074756 C235.50584876 175.45570406 235.53032018 173.28076837 235.55601883 171.10579109 C235.6345736 164.2640221 235.6922907 157.42252785 235.72084844 150.5803656 C235.75398413 142.74340968 235.85995756 134.91175945 236.02685201 127.0765366 C236.15241126 120.96719347 236.21192055 114.85935424 236.22253382 108.74874073 C236.23032686 105.11906558 236.26502133 101.4947618 236.36991501 97.86648369 C237.36677368 83.29495331 237.36677368 83.29495331 232.74815559 70.05827332 C228.81099794 66.20303225 224.39995506 63.65046611 219.41501236 61.37165928 C216.74563117 60.10298683 214.44687853 58.45028598 212.08764648 56.68115234 C210.59443451 55.6364846 209.10094993 54.59220638 207.60717773 53.54833984 C205.93656183 52.38043258 204.26599038 51.21246172 202.59545898 50.04443359 C201.75450684 49.45645996 200.91355469 48.86848633 200.04711914 48.26269531 C197.28769256 46.33094287 194.53114727 44.39513249 191.77514648 42.45849609 C190.39903198 41.49242432 190.39903198 41.49242432 188.99511719 40.50683594 C187.22598915 39.26471964 185.45757017 38.0215927 183.68994141 36.77734375 C182.89692627 36.22095215 182.10391113 35.66456055 181.28686523 35.09130859 C180.58674316 34.59912842 179.88662109 34.10694824 179.1652832 33.59985352 C175.53702078 31.15445539 172.45408293 31.25130151 168.2010498 31.21560669 C167.44841685 31.20557991 166.69578389 31.19555313 165.92034388 31.18522251 C163.38434783 31.15299604 160.8483363 31.12814777 158.31225586 31.10351562 C156.49882217 31.08252498 154.68539142 31.06127866 152.8719635 31.03979492 C136.2628263 30.85149388 119.65268376 30.74907978 103.04271698 30.66765022 C90.77591868 30.60622444 78.51096926 30.50296886 66.24502802 30.34495556 C57.61042698 30.23749393 48.97633078 30.18053409 40.34109259 30.15951908 C35.19078405 30.14551207 30.04289267 30.10957212 24.89332581 30.01828384 C-4.22120788 28.51638151 -4.22120788 28.51638151 -28.15740013 42.93240547 Z " fill="#C5E0EB" transform="translate(173.580322265625,43.57666015625)"/>
<path d="M0 0 C15.25641378 -0.24922516 30.511897 -0.45146306 45.76983738 -0.56993389 C52.85601225 -0.62642843 59.9408239 -0.70330858 67.02612305 -0.82983398 C73.20867577 -0.9401851 79.39024062 -1.0106044 85.57375091 -1.03497344 C88.84247887 -1.04920029 92.10775705 -1.08806986 95.37573433 -1.16303062 C120.40126818 -1.71386036 120.40126818 -1.71386036 130.95298767 8.12492371 C131.43924181 8.59977329 131.92549595 9.07462288 132.42648506 9.56386185 C135.20919908 12.10362914 138.36196386 14.1167004 141.5 16.1875 C142.22477539 16.68362793 142.94955078 17.17975586 143.69628906 17.69091797 C144.29666992 18.09971191 144.89705078 18.50850586 145.515625 18.9296875 C150.78148098 22.52698803 156.01593148 26.16916504 161.25 29.8125 C162.23073486 30.49513916 163.21146973 31.17777832 164.22192383 31.88110352 C172.99908234 37.99401232 181.76278432 44.12602976 190.52197266 50.26464844 C193.07977845 52.0558685 195.63928552 53.84463439 198.19921875 55.6328125 C205.88062714 60.99985807 213.55778127 66.37210941 221.1875 71.8125 C221.76999512 72.22725586 222.35249023 72.64201172 222.95263672 73.06933594 C226.87614196 75.87614196 226.87614196 75.87614196 228 77 C228.10358532 79.17578329 228.13523731 81.3549922 228.14044189 83.53323364 C228.14341302 84.22431461 228.14638414 84.91539558 228.1494453 85.6274184 C228.15817036 87.96142245 228.15964387 90.29537543 228.16113281 92.62939453 C228.16575915 94.29663707 228.17078355 95.96387854 228.17617798 97.63111877 C228.1893417 102.17997905 228.1957573 106.72882453 228.20018864 111.2777009 C228.20311943 114.12739542 228.20722476 116.97708592 228.21169281 119.82677841 C228.22539232 128.7633087 228.23504092 137.69982976 228.2388947 146.63636982 C228.24334972 156.90940018 228.26076705 167.18229576 228.2898953 177.45528519 C228.31166797 185.41483737 228.32160758 193.37435213 228.32293582 201.33393371 C228.3239749 206.07596822 228.3296855 210.81787651 228.34775543 215.5598793 C228.57355741 278.51979816 211.04138383 331.43674758 171 381 C170.16894755 382.04401358 169.33819603 383.0882668 168.5078125 384.1328125 C164.24699017 389.42566792 159.80897446 394.53097379 155.23046875 399.55078125 C153.78261105 401.14063551 152.34689357 402.74166323 150.92578125 404.35546875 C142.61946132 413.76725085 133.81611211 423.00806942 124.21875 431.12109375 C122.38395677 432.67485351 120.57941703 434.25209233 118.78125 435.84765625 C109.52197914 444.03145594 99.92185483 451.63748508 90 459 C89.27409668 459.54156738 88.54819336 460.08313477 87.80029297 460.64111328 C76.54704551 469.01082483 64.95357886 476.67103197 53 484 C52.36030273 484.39638672 51.72060547 484.79277344 51.06152344 485.20117188 C7.79790403 512 7.79790403 512 0 512 C-0.2029322 504.97128666 -0.34297319 497.94332858 -0.43945312 490.91235352 C-0.47967197 488.52111585 -0.5342568 486.13007476 -0.60351562 483.73950195 C-0.70063345 480.30110233 -0.74594306 476.86530252 -0.78125 473.42578125 C-0.82254028 472.35789871 -0.86383057 471.29001617 -0.90637207 470.18977356 C-0.91074952 462.94053949 -0.91074952 462.94053949 1.66352844 460.28205872 C3.72379991 458.9770364 5.76346154 457.96634627 8 457 C8.8561792 456.49218994 9.7123584 455.98437988 10.59448242 455.46118164 C11.34060791 455.03184326 12.0867334 454.60250488 12.85546875 454.16015625 C36.778672 440.28294772 59.89599634 424.93070092 81 407 C82.15226411 406.03375919 83.30461338 405.06761992 84.45703125 404.1015625 C90.60171754 398.92090958 96.51184763 393.65362366 102.1171875 387.8828125 C103.72556137 386.27443863 105.34381271 384.84566378 107.125 383.4375 C110.08282497 380.92977883 112.4690247 378.28331993 114.97265625 375.3359375 C117.28440821 372.67230037 119.70418883 370.12736524 122.125 367.5625 C129.00018571 360.1679787 135.00471422 352.11164284 141 344 C141.65742188 343.11699219 142.31484375 342.23398437 142.9921875 341.32421875 C152.31709197 328.40766448 160.36835768 314.47613046 167 300 C167.45584473 299.00564941 167.45584473 299.00564941 167.92089844 297.99121094 C174.72121826 282.90277454 180.84564116 266.13549826 181.27502441 249.46377563 C181.30963776 248.16604218 181.3442511 246.86830872 181.37991333 245.53125 C181.4130516 244.10498674 181.44590966 242.67871694 181.47851562 241.25244141 C181.51591614 239.74058881 181.55338329 238.22873785 181.59091187 236.71688843 C181.92217697 222.918528 182.11759978 209.11792299 182.27381134 195.31658363 C182.38123101 186.05111536 182.53188589 176.79043398 182.79003906 167.52783203 C183.01571201 159.42863793 183.15879228 151.33281542 183.20470572 143.23053491 C183.23166665 138.94926202 183.29749943 134.67722085 183.46235657 130.3988533 C184.68001746 112.8723185 184.68001746 112.8723185 178.79534912 97.05382538 C173.46730657 92.03938836 167.49930676 88.65813234 160.94104004 85.50291061 C156.23236373 83.09671433 152.06760543 79.9936031 147.8125 76.875 C146.18338068 75.72836605 144.55215617 74.58471174 142.91796875 73.4453125 C142.11278809 72.88102539 141.30760742 72.31673828 140.47802734 71.73535156 C137.92022155 69.9441315 135.36071448 68.15536561 132.80078125 66.3671875 C131.93412842 65.76148926 131.06747559 65.15579102 130.17456055 64.53173828 C128.55791695 63.40196092 126.94093328 62.2726699 125.32348633 61.14404297 C124.56962646 60.61697754 123.8157666 60.08991211 123.0390625 59.546875 C122.28028305 59.03485535 121.5215036 58.52283569 120.73973083 57.99530029 C118 56 118 56 115.29327393 53.50814819 C104.58306085 44.01069769 93.60802902 44.61289331 79.8828125 44.8046875 C77.57110495 44.80089389 75.25940085 44.79269278 72.94772339 44.78030396 C66.90720843 44.75962149 60.8685196 44.79822698 54.82824707 44.84979248 C47.55764714 44.89928251 40.28695751 44.87406168 33.01625061 44.86157227 C22.00972093 44.85092572 11.00752869 44.93431801 0 45 C0 30.15 0 15.3 0 0 Z " fill="#012453" transform="translate(256,0)"/>
<path d="M0 0 C2.28637923 0.02056247 4.57280753 0.03619871 6.85925293 0.04716492 C12.82483013 0.08880446 18.78737591 0.19653182 24.75177002 0.31890869 C30.85883593 0.43222728 36.96640049 0.48184204 43.07421875 0.53710938 C55.01976317 0.65444453 66.96227817 0.84762302 78.90625 1.07421875 C78.90625 10.97421875 78.90625 20.87421875 78.90625 31.07421875 C74.77633545 31.01754028 74.77633545 31.01754028 70.56298828 30.9597168 C61.3988844 30.84362089 52.23543723 30.80044769 43.07063484 30.79181194 C37.52119905 30.78439701 31.97409337 30.75350635 26.42529297 30.66625977 C21.05571324 30.5827399 15.68928453 30.56441908 10.31914902 30.58863258 C8.28521939 30.58686008 6.25116562 30.56278885 4.21780777 30.51453209 C-11.04129954 30.1739317 -19.79785205 33.58760632 -31.35216522 43.59164047 C-33.55887274 45.47016897 -35.89104907 47.09441465 -38.3046875 48.6953125 C-40.42369826 50.11807947 -42.52873847 51.55413851 -44.61275482 53.02781296 C-48.73904951 55.92236229 -52.80814986 58.49730146 -57.33508301 60.72125244 C-63.90654748 64.17953669 -70.49628726 67.80712898 -73.21377563 75.06599426 C-74.84651465 83.28989314 -74.55440793 91.62449808 -74.25335503 99.95946407 C-74.14181505 103.62065943 -74.14312579 107.28201224 -74.13049316 110.94464111 C-74.09382723 117.09632048 -73.98431357 123.24297506 -73.82226562 129.39257812 C-73.59549074 138.00512473 -73.50561989 146.6151337 -73.44112682 155.23019934 C-73.39093505 161.25986146 -73.30849624 167.28915933 -73.2196064 173.31836033 C-73.19831117 174.76278656 -73.17775372 176.20722386 -73.15795708 177.65167141 C-72.93514868 193.48869372 -72.57334701 208.7802292 -68.09375 224.07421875 C-67.81399323 225.03791382 -67.53423645 226.00160889 -67.2460022 226.99450684 C-66.58486746 229.16379192 -65.84231289 231.26935113 -65.03125 233.38671875 C-64.74016357 234.15685303 -64.44907715 234.9269873 -64.14916992 235.72045898 C-54.22536945 261.02145119 -38.46739995 283.93462013 -20.125 303.859375 C-18.31533012 305.83261119 -16.57535109 307.84529688 -14.84375 309.88671875 C-7.2733273 318.56888185 1.09546515 326.66403926 9.90625 334.07421875 C11.24623047 335.24791016 11.24623047 335.24791016 12.61328125 336.4453125 C25.19235659 347.40318424 38.75022465 357.03921995 52.59375 366.32421875 C53.46475342 366.9262915 54.33575684 367.52836426 55.2331543 368.14868164 C59.32126472 370.92764574 63.13107879 373.29078942 67.7890625 374.98046875 C76.47924076 378.41259101 76.47924076 378.41259101 78.90625 383.07421875 C80.89003349 394.24919282 79.87011 405.82856758 78.90625 417.07421875 C64.39751278 411.42105724 51.29712422 402.55938527 38.40625 393.94921875 C37.77494171 393.52860168 37.14363342 393.10798462 36.49319458 392.67462158 C24.53170644 384.68500304 13.07934959 376.13918635 1.90625 367.07421875 C0.61460937 366.04554688 0.61460937 366.04554688 -0.703125 364.99609375 C-18.94961543 350.33561878 -36.83617982 333.66046299 -51.09375 315.07421875 C-52.03681607 313.9163715 -52.98372555 312.76164852 -53.93359375 311.609375 C-60.9075117 303.11789165 -67.26271256 294.38803723 -73.09375 285.07421875 C-73.50866699 284.41196289 -73.92358398 283.74970703 -74.35107422 283.06738281 C-83.83369553 267.7770661 -91.28838686 252.13879283 -97.03125 235.07421875 C-97.40902588 233.95289551 -97.78680176 232.83157227 -98.17602539 231.67626953 C-102.07946626 219.67650629 -103.42104527 208.42108169 -103.63818359 195.8190918 C-103.67043258 194.31309964 -103.70319258 192.80711835 -103.73641968 191.30114746 C-104.02417588 177.62524537 -104.17571309 163.94597446 -104.29425621 150.26767254 C-104.38343111 140.1794779 -104.53793385 130.09671065 -104.77742517 120.01094216 C-104.94077749 112.88879616 -105.02660954 105.76813049 -105.05686057 98.64419204 C-105.07709421 94.40100437 -105.13077391 90.16469633 -105.26948166 85.92358971 C-106.07275934 60.28020328 -106.07275934 60.28020328 -101.1333847 53.30643082 C-96.49885376 48.79453334 -91.30729657 45.8258826 -85.44416523 43.17844105 C-82.25989026 41.68247243 -79.63021641 39.79753228 -76.8125 37.69921875 C-75.07309325 36.49063124 -73.33351389 35.2822921 -71.59375 34.07421875 C-63.52948211 28.4703287 -55.47575748 22.85179588 -47.44140625 17.20507812 C-45.95314343 16.16093599 -44.45421629 15.13184301 -42.94544983 14.11755371 C-40.81623659 12.59190371 -38.90683961 11.06647089 -36.93992615 9.35668945 C-25.23960032 -0.32745224 -14.71316347 -0.39277043 0 0 Z " fill="#EDF4F9" transform="translate(177.09375,43.92578125)"/>
<path d="M0 0 C5.25174926 4.38442526 10.13222473 9.00842093 14.9375 13.875 C15.62134766 14.56335938 16.30519531 15.25171875 17.00976562 15.9609375 C18.67551464 17.63833511 20.3388622 19.31803791 22 21 C16.43312161 27.72175754 10.2914864 33.7670994 4.07617188 39.88476562 C0.5320949 43.39490092 -2.96464842 46.88519902 -6.19140625 50.69140625 C-12.4864803 58.02574845 -19.60119308 64.65228568 -26.46630859 71.44580078 C-28.38591342 73.34715567 -30.30237899 75.25163664 -32.21875 77.15625 C-32.79500122 77.72420288 -33.37125244 78.29215576 -33.96496582 78.87731934 C-36.87224443 81.7673715 -39.65000173 84.71283503 -42.32226562 87.82226562 C-46.52362321 92.67938528 -51.0639837 97.17046279 -55.625 101.6875 C-56.53072754 102.58944092 -57.43645508 103.49138184 -58.36962891 104.4206543 C-61.72921306 107.76605444 -65.09331262 111.10688392 -68.45776367 114.4473877 C-71.76634351 117.732918 -75.07102481 121.02233791 -78.375 124.3125 C-79.23561035 125.16481201 -80.0962207 126.01712402 -80.98291016 126.89526367 C-85.32292747 131.21774988 -89.49604479 135.58877517 -93.41650391 140.29760742 C-95.12722105 142.13677342 -96.95320012 143.55149973 -99 145 C-99.4125 144.57589844 -99.825 144.15179688 -100.25 143.71484375 C-103.38055907 140.5353697 -106.55273085 137.47139071 -109.9375 134.5625 C-113.46634763 131.52320349 -116.73005027 128.28983153 -119.99609375 124.97265625 C-122.58246151 122.42662171 -125.3153528 120.07978443 -128.06640625 117.71484375 C-130.56569138 115.49830603 -132.88281884 113.12837719 -135.22265625 110.74609375 C-137.06593574 108.93522357 -138.97822799 107.24678646 -140.9375 105.5625 C-143.74576347 103.14382221 -146.39970593 100.64100317 -149 98 C-152.19052382 94.75962424 -155.52112139 91.77054452 -158.96875 88.80859375 C-162.46571091 85.69495355 -165.72967735 82.34860165 -169 79 C-167.64494082 76.00107153 -166.10612876 73.819479 -163.84765625 71.43359375 C-163.23599609 70.78326172 -162.62433594 70.13292969 -161.99414062 69.46289062 C-161.03797852 68.46032227 -161.03797852 68.46032227 -160.0625 67.4375 C-159.42892578 66.76525391 -158.79535156 66.09300781 -158.14257812 65.40039062 C-155.46338208 62.56342909 -152.76924144 59.74939773 -150 57 C-147.10470278 58.31787303 -144.96973948 59.75650964 -142.671875 61.94921875 C-142.04522949 62.54234863 -141.41858398 63.13547852 -140.77294922 63.74658203 C-140.10537598 64.38708496 -139.43780273 65.02758789 -138.75 65.6875 C-137.31000307 67.05349847 -135.8698958 68.41938063 -134.4296875 69.78515625 C-133.69459961 70.48527832 -132.95951172 71.18540039 -132.20214844 71.90673828 C-128.77598912 75.16348883 -125.32559726 78.39418601 -121.875 81.625 C-121.22241211 82.23698242 -120.56982422 82.84896484 -119.89746094 83.47949219 C-113.28693514 89.67665509 -106.64656827 95.84153908 -100 102 C-95.81796332 98.5333706 -91.96676791 95.02915314 -88.375 90.9375 C-82.05216909 83.85761173 -75.28085316 77.22560137 -68.52490234 70.56225586 C-64.81745797 66.89020229 -61.14180278 63.24712758 -57.765625 59.265625 C-51.48999126 51.94220761 -44.38383024 45.33289384 -37.53369141 38.55419922 C-28.31413686 29.4693688 -28.31413686 29.4693688 -19.64208984 19.86914062 C-16.1481018 15.89204094 -12.32379416 12.22189301 -8.5625 8.5 C-7.73556641 7.67757812 -6.90863281 6.85515625 -6.05664062 6.0078125 C-4.04005041 4.00287887 -2.02114764 2.00033747 0 0 Z " fill="#C4E0EC" transform="translate(330,153)"/>
<path d="M0 0 C2.89529722 1.31787303 5.03026052 2.75650964 7.328125 4.94921875 C7.95477051 5.54234863 8.58141602 6.13547852 9.22705078 6.74658203 C9.89462402 7.38708496 10.56219727 8.02758789 11.25 8.6875 C12.68999693 10.05349847 14.1301042 11.41938063 15.5703125 12.78515625 C16.30540039 13.48527832 17.04048828 14.18540039 17.79785156 14.90673828 C21.22401088 18.16348883 24.67440274 21.39418601 28.125 24.625 C28.77758789 25.23698242 29.43017578 25.84896484 30.10253906 26.47949219 C36.71306486 32.67665509 43.35343173 38.84153908 50 45 C56.28789133 40.61846988 61.60458404 35.61134772 66.9375 30.125 C68.44445596 28.58382385 69.95345235 27.04463918 71.46484375 25.5078125 C72.120896 24.83379395 72.77694824 24.15977539 73.45288086 23.46533203 C75 22 75 22 76 22 C76.35017658 27.58204562 76.60186219 33.15752171 76.76904297 38.74804688 C76.8387996 40.64208418 76.93386251 42.53538569 77.05615234 44.42675781 C78.09800115 60.97376827 78.09800115 60.97376827 72.96630859 67.29516602 C70.07293667 70.35785631 66.93808134 73.04537368 63.63314819 75.6519928 C61.44985787 77.45408957 59.66390824 79.50048658 57.875 81.6875 C55.79852604 84.21855339 53.67355482 86.10097286 51 88 C50.5875 87.57589844 50.175 87.15179688 49.75 86.71484375 C46.61944093 83.5353697 43.44726915 80.47139071 40.0625 77.5625 C36.53365237 74.52320349 33.26994973 71.28983153 30.00390625 67.97265625 C27.41753849 65.42662171 24.6846472 63.07978443 21.93359375 60.71484375 C19.43430862 58.49830603 17.11718116 56.12837719 14.77734375 53.74609375 C12.93406426 51.93522357 11.02177201 50.24678646 9.0625 48.5625 C6.25423653 46.14382221 3.60029407 43.64100317 1 41 C-2.19052382 37.75962424 -5.52112139 34.77054452 -8.96875 31.80859375 C-12.46571091 28.69495355 -15.72967735 25.34860165 -19 22 C-17.64494082 19.00107153 -16.10612876 16.819479 -13.84765625 14.43359375 C-13.23599609 13.78326172 -12.62433594 13.13292969 -11.99414062 12.46289062 C-11.35669922 11.79451172 -10.71925781 11.12613281 -10.0625 10.4375 C-9.42892578 9.76525391 -8.79535156 9.09300781 -8.14257812 8.40039062 C-5.46338208 5.56342909 -2.76924144 2.74939773 0 0 Z " fill="#EDF4FA" transform="translate(180,210)"/>
</svg>
